# xmcd
#
# Track frame offsets:
#	150
#	16898
#	44466
#	61557
#	93026
#	116135
#	137939
#
# Disc length: 2171 seconds
#
# Revision: 7
# Processed by: cddbd v1.5.2PL0 Copyright (c) Steve Scherf et al.
# Submitted via: Jack! The Knife 20 Magnifico
#
DISCID=53087907
DTITLE=Loudness - The Law Of The Devil's Land
DYEAR=1983
DGENRE=Heavy Metal
TTITLE0=In The Mirror
TTITLE1=Show Me The Way
TTITLE2=I Wish You Were Here
TTITLE3=Mr. Yes Man
TTITLE4=Black Wall
TTITLE5=Sleepless Night
TTITLE6=Speed
EXTD=Loudness
EXTT0=Akira Takasaki
EXTT1=Akira Takasaki
EXTT2=Akira Takasaki
EXTT3=Akira Takasaki
EXTT4=Takasaki, Yamashita
EXTT5=Akira Takasaki
EXTT6=Akira Takasaki
PLAYORDER=
